<?xml version="1.0"?>
<svg xmlns="http://www.w3.org/2000/svg" height="512px" viewBox="0 0 384 384" width="512px"><path d="m304 112h-16v-21.359375c0-24.105469-9.945312-47.808594-27.28125-65.039063-16.621094-16.523437-38.191406-25.601562-60.824219-25.601562-.167969 0-.335937 0-.503906 0-23.367187.191406-45.246094 9.367188-61.542969 25.769531-14.769531 14.664063-23.65625 33.6875-25.488281 54.230469h-16.359375c-25.632812 0-49.734375 9.992188-67.871094 28.128906-18.136718 18.136719-28.128906 42.238282-28.128906 67.871094 0 52.9375 43.0625 96 96 96h8.296875l-53.921875 87.617188c-3.039062 4.933593-3.167969 11.125-.34375 16.183593 2.824219 5.0625 8.167969 8.199219 13.96875 8.199219h256c5.800781 0 11.144531-3.136719 13.96875-8.191406 2.824219-5.054688 2.695312-11.25-.34375-16.183594l-53.921875-87.625h24.296875c21.289062 0 41.375-8.296875 56.640625-23.449219 15.0625-15.175781 23.359375-35.261719 23.359375-56.550781 0-44.113281-35.886719-80-80-80zm-96 240v-8c0-8.832031-7.167969-16-16-16s-16 7.167969-16 16v8h-83.367188l53.503907-86.945312c.09375-.144532.175781-.285157.269531-.429688l45.601562-74.097656 45.601563 74.097656c.09375.144531.167969.296875.269531.429688l53.488282 86.945312zm130.007812-126.078125c-9.144531 9.078125-21.214843 14.078125-34.007812 14.078125h-43.984375l-54.390625-88.382812c-2.914062-4.738282-8.074219-7.617188-13.625-7.617188s-10.710938 2.878906-13.625 7.617188l-54.390625 88.382812h-27.984375c-35.289062 0-64-28.710938-64-64 0-17.078125 6.664062-33.152344 18.753906-45.246094 12.085938-12.097656 28.167969-18.753906 45.246094-18.753906h32c8.832031 0 16-7.167969 16-16v-8c0-14.984375 5.824219-29.023438 16.472656-39.601562 10.390625-10.453126 24.304688-16.277344 39.144532-16.398438h.3125c14.09375 0 27.65625 5.777344 38.230468 16.296875 11.34375 11.261719 17.839844 26.703125 17.839844 42.34375v37.359375c0 8.832031 7.167969 16 16 16h32c26.472656 0 48 21.527344 48 48 0 12.792969-5 24.863281-13.992188 33.921875zm0 0" fill="#D80027"/><path d="m192 232c-8.832031 0-16 7.167969-16 16v40c0 8.832031 7.167969 16 16 16s16-7.167969 16-16v-40c0-8.832031-7.167969-16-16-16zm0 0" fill="#D80027"/></svg>
